<svg width="105" height="31" viewBox="0 0 105 31" fill="none" xmlns="http://www.w3.org/2000/svg">
<path d="M24.132 2.54372V30.5117H18.622V19.1497H6.12V30.5117H0.61V2.54372H6.12V13.8297H18.622V2.54372H24.132ZM38.6326 30.9677C36.6059 30.9677 34.8832 30.5877 33.4646 29.8277C32.0712 29.0677 31.0072 28.0164 30.2726 26.6737C29.5379 25.3311 29.1706 23.7857 29.1706 22.0377C29.1706 20.3657 29.6012 18.8584 30.4626 17.5157C31.3239 16.1731 32.4766 15.1091 33.9206 14.3237C35.3646 13.5131 36.9732 13.1077 38.7466 13.1077C41.1279 13.1077 43.0786 13.8044 44.5986 15.1977C46.1439 16.5657 47.1446 18.5544 47.6006 21.1637L35.4406 25.0397C36.2512 25.9771 37.3532 26.4457 38.7466 26.4457C39.3292 26.4457 39.8866 26.3444 40.4186 26.1417C40.9759 25.9391 41.5206 25.6731 42.0526 25.3437L44.4086 29.2957C43.5219 29.8024 42.5592 30.2077 41.5206 30.5117C40.5072 30.8157 39.5446 30.9677 38.6326 30.9677ZM34.4146 21.7337C34.4146 21.8604 34.4146 21.9744 34.4146 22.0757L41.7106 19.6057C41.4826 18.9724 41.1152 18.4277 40.6086 17.9717C40.1019 17.4904 39.3419 17.2497 38.3286 17.2497C37.1379 17.2497 36.1879 17.6551 35.4786 18.4657C34.7692 19.2764 34.4146 20.3657 34.4146 21.7337ZM51.4665 30.5117V0.529717H56.7865V19.3017L64.6905 13.4877L67.9205 16.3377L62.0305 20.7837L68.5285 30.5117H62.3345L58.2685 23.5957L56.7865 24.6977V30.5117H51.4665ZM73.7686 6.60972H79.0886V13.8297H83.1166V17.9717H79.0886V30.5117H73.7686V17.9717H71.1846V13.8297H73.7686V6.60972ZM85.8737 21.9997C85.8737 20.3024 86.2664 18.7824 87.0517 17.4397C87.8624 16.0971 88.9897 15.0457 90.4337 14.2857C91.8777 13.5004 93.537 13.1077 95.4117 13.1077C97.3117 13.1077 98.9584 13.5004 100.352 14.2857C101.745 15.0457 102.809 16.0971 103.544 17.4397C104.304 18.7824 104.684 20.3024 104.684 21.9997C104.684 23.6971 104.304 25.2297 103.544 26.5977C102.809 27.9404 101.745 29.0044 100.352 29.7897C98.9584 30.5751 97.2864 30.9677 95.3357 30.9677C93.5117 30.9677 91.8777 30.6131 90.4337 29.9037C89.015 29.1944 87.9004 28.1684 87.0897 26.8257C86.279 25.4831 85.8737 23.8744 85.8737 21.9997ZM91.2317 22.0377C91.2317 23.3551 91.6117 24.4571 92.3717 25.3437C93.1317 26.2051 94.0944 26.6357 95.2597 26.6357C96.501 26.6357 97.489 26.2051 98.2237 25.3437C98.9584 24.4571 99.3257 23.3551 99.3257 22.0377C99.3257 20.7204 98.9584 19.6311 98.2237 18.7697C97.489 17.8831 96.501 17.4397 95.2597 17.4397C94.0944 17.4397 93.1317 17.8831 92.3717 18.7697C91.6117 19.6311 91.2317 20.7204 91.2317 22.0377Z" fill="black"/>
</svg>
